# xmcd CD database file
#
# Track frame offsets:
#	150
#	15523
#	27615
#	39597
#	51698
#	71509
#	83874
#	97685
#	113897
#	124975
#	138026
#	154305
#	166063
#	179449
#	190443
#	200991
#	214241
#	231701
#	246596
#	256823
#
# Disc length: 3661 seconds
#
# Revision: 0
# Processed by: cddbd v1.5.2PL0 Copyright (c) Steve Scherf et al.
# Submitted via: CDex 1.51
#
DISCID=2e0e4b14
DTITLE=Various Artist - The Ultimate Collection Country 100 Hits [CD02)
DYEAR=2009
DGENRE=Country
TTITLE0=Billy Ray Cyrus - Achy Breaky Heart
TTITLE1=Tammy Wynette - Stand By Your Man
TTITLE2=Dolly Parton - Jolene
TTITLE3=Marie Osmond - Paper Roses
TTITLE4=The Mavericks - Dance The Night Away
TTITLE5=Patsy Cline - Crazy
TTITLE6=Patti Page - Tennessee Waltz
TTITLE7=Rita Coolidge - We're All Alone
TTITLE8=Roger Miller - King Of THe Road
TTITLE9=Faron Young - It's Four In The Morning
TTITLE10=Charlie Daniels Band - The Devil Went Down To Georgia
TTITLE11=Patsy Cline - Walkin' After Midnight
TTITLE12=Charlie Rich - Behind Closed Doors
TTITLE13=Donna Fargo - Wishful Thinking
TTITLE14=Jim Reeves - He'll Have To Go
TTITLE15=Lynn Anderson - Rose Garden
TTITLE16=Ricky Skaggs - Country Boy
TTITLE17=Olivia Newton John - Take Me Home Country Roads
TTITLE18=Patsy Cline - Three Cigarettes In An Ashtray
TTITLE19=Lee Greenwood - The Wind Beneath My Wings
EXTD=YEAR: 2009
EXTT0=
EXTT1=
EXTT2=
EXTT3=
EXTT4=
EXTT5=
EXTT6=
EXTT7=
EXTT8=
EXTT9=
EXTT10=
EXTT11=
EXTT12=
EXTT13=
EXTT14=
EXTT15=
EXTT16=
EXTT17=
EXTT18=
EXTT19=
PLAYORDER=
